<svg width="24" height="24" viewBox="0 0 24 24" fill="none" xmlns="http://www.w3.org/2000/svg">
<path d="M1.98247 13.37C1.15411 13.3592 0.491318 12.679 0.50208 11.8506C0.512842 11.0223 1.19308 10.3595 2.02144 10.3702L1.98247 13.37ZM23.0746 11.0831C23.6527 11.6765 23.6404 12.6262 23.0471 13.2043L13.3779 22.6254C12.7846 23.2035 11.8349 23.1912 11.2568 22.5978C10.6786 22.0045 10.691 21.0548 11.2843 20.4767L19.8791 12.1024L11.5048 3.50758C10.9267 2.91423 10.939 1.96456 11.5323 1.38644C12.1257 0.808309 13.0754 0.820647 13.6535 1.41399L23.0746 11.0831ZM2.02144 10.3702L22.0198 10.6301L21.9808 13.6298L1.98247 13.37L2.02144 10.3702Z" fill="white"/>
</svg>
